<?xml version="1.0" encoding="UTF-8"?><svg id="Layer_1" xmlns="http://www.w3.org/2000/svg" viewBox="0 0 603.39 1187.23"><defs><style>.cls-1{fill:#fff;}.cls-1,.cls-2,.cls-3{stroke:#000;stroke-miterlimit:10;stroke-width:5px;}.cls-3{fill:none;stroke-linecap:round;}</style></defs><path class="cls-1" d="m329.95,476.56c-57.26-60.12-203.27-246.15-19.46-423.91C357.38,7.3,426-8.45,487.29,13.9c55,20.06,108.45,72.14,113.18,197.57,6.73,178.35-72.58,245.75-125.19,270.77-14.49,6.89-15.35,27.23-1.47,35.28,73.17,42.46,194.96,150.89-1.42,338.94-14.36,13.75-22.83,32.54-23.5,52.41-1.31,39.29-2.47,101.09-3.06,135.35-.25,14.45,9.35,27.21,23.29,30.98,33.66,9.12,90.97,21.66,117.67,45.75,13.64,12.31,11.95,34.5-3.57,44.33-24.06,15.25-79.3,22.71-202.82-46.08,0,0-119.23,82.16-209.7,49.15-27.24-9.94-30.33-47.34-5.2-61.79,17.66-10.15,46.55-19.46,93.44-24.72,22.4-2.51,39.83-20.64,41.38-43.13l9.29-134.66c1.83-26.53-4.42-53.07-18.26-75.78-21.9-35.92-47.66-104.42-9.67-196.62,7.75-18.81-3.82-39.94-23.81-43.68-60.21-11.28-152.37-46.04-168.18-172.95-1.49-11.93-9.28-22.15-20.44-26.63-25.9-10.38-65.7-37.58-28.54-101.14,6.6-11.29,5.81-25.4-2.06-35.84-22.31-29.6-58.75-87.57-14.56-101.85.75-.24,22.07-8.93,38.74,34.41l14.44,43.31c1.59,4.77,8.61,3.85,8.89-1.17,1.66-29.45-1.66-70.06,21.68-79.65,0,0,37.82-16.81,32.57,20.84-1.59,11.39-3.02,22.8-3.88,34.27-1.38,18.28-4.06,43.86-8.96,61.83-2.49,9.14-2.65,18.77-.2,27.93,4.25,15.92,10.28,44.14,12.49,82.11.47,8,2.11,15.88,4.98,23.36,14.88,38.77,68.05,150.11,177.11,112.41,13.76-4.76,18.05-22.12,8.01-32.66Z"/><path class="cls-2" d="m548.98,250.1c.59,38.14-9.2,133.4-124.69,110.16-7.04-1.42-12.28-7.38-12.74-14.55-2-31.17,4.04-112.38,121.65-111.32,8.65.08,15.65,7.06,15.78,15.71Z"/><path class="cls-2" d="m266.65,231.89c38.14-.59,133.4,9.2,110.16,124.69-1.42,7.04-7.38,12.28-14.55,12.74-31.17,2-112.38-4.04-111.32-121.65.08-8.65,7.06-15.65,15.71-15.78Z"/><path class="cls-3" d="m470.44,609.07s90.02,77.52,0,167.54"/><line class="cls-3" x1="380.42" y1="1119.19" x2="380.42" y2="866.63"/></svg>