<?xml version="1.0" encoding="utf-8"?>
<!-- Generator: Adobe Illustrator 27.1.1, SVG Export Plug-In . SVG Version: 6.00 Build 0)  -->
<svg version="1.1" id="Layer_1" xmlns="http://www.w3.org/2000/svg" xmlns:xlink="http://www.w3.org/1999/xlink" x="0px" y="0px"
	 viewBox="0 0 1198 1000" style="enable-background:new 0 0 1198 1000;" xml:space="preserve">
<style type="text/css">
	.st0{fill:#FFFFFF;}
	.st1{fill:#FFF426;}
</style>
<g>
	<path d="M35.7,510.9c26.2,1.6,52,6.3,77.1,13.9C216,555.9,305.3,635.3,405.5,678.8c112.9,49,239.1,50.4,352.8,3.8
		c64.4-26.4,124.1-67.3,186.5-100.4s129.5-58.6,197.1-51.5v-6.4c-26.2-1.6-52-6.3-77.1-13.9C961.5,479.3,872.2,399.9,772,356.4
		c-113-49-239.2-50.4-352.8-3.8c-64.4,26.4-124.1,67.3-186.5,100.4s-129.5,58.6-197.1,51.5L35.7,510.9L35.7,510.9z"/>
	<path d="M35.7,515.9c40,2.6,79,12.6,115.9,28.3c33.9,14.5,65.9,32.8,97.3,51.9c63.9,38.7,126.6,80.8,198.3,103.7
		c73.4,23.4,151.6,28,227.2,13.2c38.2-7.5,75.1-20.1,110.4-36.6c36.3-17,70.9-37.6,105.5-57.7c68.2-39.8,141.9-82.1,223.1-84.1
		c9.5-0.2,19,0.2,28.5,1.1c2.7,0.3,5-2.5,5-5v-6.4c-0.1-2.7-2.3-4.9-5-5c-40-2.6-79-12.6-115.9-28.3c-33.8-14.5-65.9-32.8-97.3-51.9
		c-63.9-38.7-126.5-80.8-198.3-103.7c-73.4-23.4-151.6-28-227.2-13.3c-38.2,7.5-75.1,20.1-110.4,36.6c-36.3,17-70.9,37.6-105.5,57.7
		c-68.3,39.8-141.9,82.2-223.1,84.1c-9.5,0.2-19-0.2-28.5-1.1c-2.7-0.3-5,2.5-5,5v6.4c0,6.4,10,6.5,10,0v-6.4l-5,5
		c79.5,8,155.3-27,222.9-64.9c69.6-39.1,136.8-83.8,214.6-105.1c75.2-20.5,154.4-21,229.8-1.5c74,19.2,138.3,59.4,202.8,99
		c64.1,39.4,130.7,78.1,206.3,89.3c9.9,1.5,19.8,2.5,29.7,3.1l-5-5v6.4l5-5c-79.5-8-155.3,27-222.9,64.9
		c-69.7,39.1-136.8,83.8-214.7,105.1c-75.2,20.5-154.4,21-229.8,1.5c-74-19.2-138.3-59.4-202.8-99C207.6,558.9,141,520.2,65.3,509
		c-9.9-1.5-19.8-2.5-29.7-3.1C29.2,505.5,29.2,515.5,35.7,515.9z"/>
</g>
<circle cx="588.7" cy="517.6" r="144"/>
<path class="st0" d="M525.2,427.6c-7.7-0.5-15.1,2.4-20.4,8.1c-0.6,0-1.2,0.3-1.6,0.7c-7.8,7-11.1,19.5-13,29.4
	c-2,10.8-1.4,21.2,3.1,31.3c2.4,5.4,10.8,2.5,10.7-2.9c-0.1-21.3,9.4-41.5,26-54.8C535.2,435.2,530.5,428,525.2,427.6z"/>
<path class="st1" d="M1198,1000H0V0h1198V1000z M35.7,510.2c26.2,1.6,52,6.3,77.1,13.9C216,555.3,305.3,634.7,405.5,678.2
	c112.9,49,239.1,50.4,352.8,3.8c64.4-26.4,124.1-67.3,186.5-100.4s129.5-58.6,197.1-51.5v-6.4c-26.2-1.6-52-6.3-77.1-13.9
	C961.5,478.6,872.2,399.3,772,355.8c-113-49-239.1-50.4-352.8-3.8c-64.4,26.4-124.1,67.3-186.5,100.4s-129.5,58.6-197.1,51.5
	L35.7,510.2L35.7,510.2z"/>
</svg>
