<svg id="Layer_1" data-name="Layer 1" xmlns="http://www.w3.org/2000/svg" viewBox="0 0 578 658.5"><defs><style>.cls-1{fill:#234731;}</style></defs><title>ladybug</title><path class="cls-1" d="M574.94,203.45a7.51,7.51,0,0,0-10.49,1.61l-54.17,73.81c-10.78-26-25.18-50.39-41.52-72.8a56,56,0,1,1-75-81.67c-7.87-7-15.66-13.6-23.24-19.72l68.07-92.74a7.5,7.5,0,1,0-12.1-8.88L358.71,95.37C320.82,66.13,290.58,49.44,286.5,48.5h0a.3.3,0,0,0-.21,0q-.18,0-.24,0h0c-4,.92-32.49,16.63-68.72,44.2L151.55,3.06a7.5,7.5,0,1,0-12.1,8.88l66.05,90c-30.68,24.48-65.28,56.62-94.73,94.84A56,56,0,1,1,87.2,305.41L13.55,205.06a7.5,7.5,0,0,0-12.1,8.88L57.7,290.58C31,363.72,33.93,449.11,102.17,540.52L35.65,611a7.5,7.5,0,0,0,10.91,10.3l64.92-68.81c27.88,34.63,65.24,70.07,114,106L286.27,50.76,347.05,658.5c50.24-37,88.39-73.5,116.52-109.12l67.87,71.94A7.5,7.5,0,1,0,542.35,611l-69.58-73.74c64.4-88.11,68.28-170.54,43.85-241.69l59.93-81.65A7.51,7.51,0,0,0,574.94,203.45ZM145.5,497.5a56,56,0,1,1,56-56A56,56,0,0,1,145.5,497.5Zm263-14a56,56,0,1,1,56-56A56,56,0,0,1,408.5,483.5Z"/></svg>