<svg id="Layer_1" data-name="Layer 1" xmlns="http://www.w3.org/2000/svg" viewBox="0 0 1000 1000"><defs><style>.cls-1{fill:#d2928b;}.cls-2{opacity:0.37;}</style></defs><title>moon-shape</title><path class="cls-1" d="M942.3,629.39c-.35,1.1-.7,2.2-1.06,3.29C941.6,631.59,942,630.49,942.3,629.39Z"/><path class="cls-1" d="M412.89,943.75q-3.93-.75-7.82-1.56Q409,943,412.89,943.75Z"/><path class="cls-1" d="M945.25,619.87l-.24.81Z"/><path class="cls-1" d="M943.78,624.71l-.69,2.22Z"/><path class="cls-1" d="M420.16,945.06c-1.64-.28-3.27-.57-4.9-.87C416.89,944.49,418.52,944.78,420.16,945.06Z"/><path class="cls-1" d="M512,951.75h0Z"/><path class="cls-1" d="M522.12,951.37c-2.12.11-4.24.19-6.36.26Q519,951.52,522.12,951.37Z"/><path class="cls-1" d="M435.37,947.44l-.61-.08Z"/><path class="cls-1" d="M429.31,946.56l-1.94-.31Z"/><path class="cls-1" d="M843.5,800l.38-.42Z"/><path class="cls-1" d="M847.71,795.32l-.93,1Z"/><path class="cls-1" d="M523.13,951.33a462.23,462.23,0,0,0,142.23-29.75A464.74,464.74,0,0,1,541.65,950Q532.37,950.87,523.13,951.33Z"/><path class="cls-1" d="M940.86,633.83A465.44,465.44,0,0,1,849.74,793,463.82,463.82,0,0,0,940.86,633.83Z"/><g class="cls-2"><path class="cls-1" d="M941.24,632.68c-.13.38-.26.77-.38,1.15C941,633.45,941.11,633.06,941.24,632.68Z"/></g><g class="cls-2"><path class="cls-1" d="M434.76,947.36c-1.82-.26-3.63-.52-5.45-.8C431.13,946.84,433,947.1,434.76,947.36Z"/></g><g class="cls-2"><path class="cls-1" d="M435.37,947.44a462.07,462.07,0,0,0,75.82,4.32c-3.73.09-7.48.14-11.23.14A468,468,0,0,1,435.37,947.44Z"/></g><g class="cls-2"><path class="cls-1" d="M515.76,951.63c-1.24,0-2.49.09-3.74.12Z"/></g><g class="cls-2"><path class="cls-1" d="M523.13,951.33l-1,0Z"/></g><g class="cls-2"><path class="cls-1" d="M665.36,921.58A463.6,463.6,0,0,0,843.5,800,465.23,465.23,0,0,1,665.36,921.58Z"/></g><g class="cls-2"><path class="cls-1" d="M427.37,946.25c-2.41-.37-4.82-.77-7.21-1.19C422.55,945.48,425,945.87,427.37,946.25Z"/></g><g class="cls-2"><path class="cls-1" d="M963.58,516.12l-.06,0a462.79,462.79,0,0,1-18.27,103.79A461.05,461.05,0,0,0,963.58,516.12Z"/></g><g class="cls-2"><path class="cls-1" d="M415.26,944.19l-2.37-.44Z"/></g><g class="cls-2"><path class="cls-1" d="M849.74,793l-2,2.32Z"/></g><g class="cls-2"><path class="cls-1" d="M945,620.68l-1.23,4C944.2,623.37,944.6,622,945,620.68Z"/></g><g class="cls-2"><path class="cls-1" d="M943.09,626.93c-.26.82-.52,1.64-.79,2.46C942.57,628.57,942.83,627.75,943.09,626.93Z"/></g><g class="cls-2"><path class="cls-1" d="M405.07,942.19l-.6-.12Z"/></g><g class="cls-2"><path class="cls-1" d="M846.78,796.36q-1.44,1.62-2.9,3.23Q845.34,798,846.78,796.36Z"/></g><path class="cls-1" d="M396.48,940.32c2.65.6,5.31,1.19,8,1.75C401.8,941.51,399.13,940.92,396.48,940.32Z"/><path class="cls-1" d="M396.48,940.32l-.4-.09h0Z"/><path class="cls-1" d="M500,23C243.46,23,35.52,231,35.52,487.46c0,220.79,154.07,405.58,360.56,452.77-20.53-29.48-28-67.24-15.49-102.34,18.67-52.42,68.16-86.07,82.68-140.61,9.06-34,1.72-70-16.31-99.79-13.83-22.9-71.12-54.19-63.64-81.32,3.09-11.25,12.28-19.87,22.27-25.9A91.25,91.25,0,0,1,474.32,480c29.4,7.44,53.47,29.2,82.65,37.47,50.85,14.4,89-19.07,118.44-56.41,26.45-33.57,53.72-95.27,103.83-94.55,40.29.59,70.37,45.37,59.88,82.63-3.42,12.14-10.49,23.95-8.75,36.45C833.6,508.76,863.46,517,886.63,514s47.58-11.85,69-2.44a44.84,44.84,0,0,1,7.92,4.55q.87-14.19.88-28.62C964.4,231,756.46,23,500,23ZM253.51,214.69S299.09,258,289,286.17c-17.15,47.83-89.24,40.07-91.19,10.07C196.11,270.76,199.15,229.84,253.51,214.69Zm295.92,50.85c-8.37,21.85-20,42.32-33.62,61.33C486.74,367.56,450.22,392.7,413.33,425c-30.27,26.49-67.66,63.41-63.28,107.48,3.83,38.5,36.69,60.95,51.05,94.69,9.45,22.22,14.74,54.54-8.06,69.44-17.52,11.44-41,6-57.89,18.94-12.68,9.7-22.3,39.85-43.6,30.79-4.72-2-8.09-6.28-10.67-10.71-27.21-46.73-19.48-85.29-76.26-107.51-33.25-13-72.68-18.68-93.11-50.51l-.1-.16C82,531.33,72.39,445.64,149,451.35c27.91,2.08,99.89,27.66,121.14,2.79,14.81-17.34,2.51-48,4.89-67.84,2.89-23.93,21.34-36.72,33.17-55.78a110.46,110.46,0,0,0,16.21-59.58c-.32-29.89-7.89-61.56,10-88.24,9.5-14.14,25.62-24.29,42.65-24.27,36.48,0,44.35,37.33,40.43,66.4-1.41,10.45-14.09,89.89,21,66.45,22.66-14,43.76-30.29,64.48-47,18-14.49,25.58-37.69,50.37-22.74C557.53,242.09,556.78,246.38,549.43,265.54ZM660,160a243,243,0,0,0-92.62-19.73c-21.4-.31-44.22,1.56-64.74,8-4.8,1.51-9.31,4.61-13.09,6.38-5.64,2.63-9.65,2.29-10.54-10.82-2.74-40.27,60.57-63,91.4-66.26,35.92-3.87,58.33,16.85,84.12,37.94a298.06,298.06,0,0,0,58.32,37.31c13.82,6.72,30.1,14.74,32.54,29.91C715.65,196.2,685.9,171.21,660,160Z"/></svg>